# xmcd
#
# Track frame offsets: 
#        150
#        19742
#        37607
#        59980
#        79347
#        94890
#        117717
#        136570
#        154565
#        175820
#        192615
#        208462
#        226340
#        247560
#        264335
#        280480
#        296650
#        312245
#        327910
#        344342
#
# Disc length: 4776 seconds
#
# Revision: 1
# Processed by: cddbd v1.5.2PL0 Copyright (c) Steve Scherf et al.
# Submitted via: ExactAudioCopyFreeDBPlugin 1.0
#
DISCID=2712a614
DTITLE=The Spinners - The Spinners:  The Chrome Collection [Rhino-Atla
DTITLE=ntic box set]
DYEAR=2003
DGENRE=Soul
TTITLE0=Since I Been Gone
TTITLE1=He'll Never Love You Like I Do
TTITLE2=Mighty Love
TTITLE3=There's No One Like You
TTITLE4=I've Got to Make it on My Own
TTITLE5=Living a Little, Laughing a Little
TTITLE6=Sadie
TTITLE7=Then Came You
TTITLE8=Sitting on Top of the World
TTITLE9=I Don't Want to Lose You
TTITLE10=Love or Leave
TTITLE11=You Made a Promise to Me
TTITLE12=They Just Can't Stop It (The Games People Play)
TTITLE13=Toni My Love
TTITLE14=The Rubberband Man
TTITLE15=Now That We're Together
TTITLE16=Wake Up Susan
TTITLE17=Me and My Music
TTITLE18=You're Throwing a Good Love Away
TTITLE19=Painted Magic
EXTD=
EXTT0=
EXTT1=
EXTT2=
EXTT3=
EXTT4=
EXTT5=
EXTT6=
EXTT7=
EXTT8=
EXTT9=
EXTT10=
EXTT11=
EXTT12=
EXTT13=
EXTT14=
EXTT15=
EXTT16=
EXTT17=
EXTT18=
EXTT19=
PLAYORDER=
